<svg xmlns="http://www.w3.org/2000/svg" width="52" height="57" viewBox="0 0 52 57" fill="none">
     <path
          d="M18.0025 33.5991H39.1732V37.5345H18.0025V33.5991ZM18.0025 26.6166H35.4706V30.552H18.0025V26.6166ZM18.0025 19.627H39.1732V23.56H18.0025V19.627ZM49.3596 41.4651C49.2315 41.2331 49.1644 40.9725 49.1644 40.7075C49.1644 40.4425 49.2315 40.1819 49.3596 39.9499C49.6684 39.3846 49.9581 38.8194 50.2289 38.2209C50.2742 38.1225 50.2939 38.0142 50.2861 37.9061C50.2783 37.7981 50.2432 37.6937 50.1841 37.6029C50.1251 37.5121 50.044 37.4377 49.9484 37.3867C49.8528 37.3357 49.7458 37.3097 49.6375 37.3113H44.4932C44.2334 37.3109 43.9775 37.3752 43.7487 37.4984C43.5198 37.6215 43.3252 37.7996 43.1822 38.0166C42.5088 39.0497 41.7313 40.0111 40.8619 40.8856C39.2403 42.5148 37.3117 43.8062 35.1878 44.6851C33.0639 45.564 30.7867 46.013 28.4881 46.0061C26.1902 46.0121 23.9138 45.5624 21.7907 44.6831C19.6676 43.8038 17.7399 42.5123 16.1191 40.8833C14.4896 39.2619 13.1977 37.3334 12.3184 35.2095C11.439 33.0855 10.9897 30.8083 10.9963 28.5095C10.9963 23.8331 12.8155 19.4346 16.1168 16.1334C17.7383 14.5042 19.6669 13.2128 21.7908 12.3339C23.9148 11.455 26.1919 11.006 28.4905 11.0129C33.1621 11.0129 37.5606 12.8321 40.8642 16.1358C41.7382 17.0121 42.5172 17.9954 43.1822 19.0024C43.4672 19.4441 43.9589 19.7078 44.4909 19.7078H49.6375C49.745 19.707 49.8506 19.6796 49.9448 19.6279C50.039 19.5763 50.1189 19.502 50.1773 19.4118C50.2357 19.3216 50.2708 19.2183 50.2794 19.1112C50.288 19.004 50.2698 18.8965 50.2265 18.7981C49.9611 18.2103 49.6719 17.6334 49.3596 17.0691C49.2337 16.8365 49.1677 16.5761 49.1677 16.3115C49.1677 16.0469 49.2337 15.7865 49.3596 15.5539L51.1052 12.3904C51.2706 12.0927 51.3346 11.7493 51.2874 11.4121C51.2403 11.0749 51.0846 10.7621 50.844 10.5212L46.4835 6.16075C46.2428 5.91945 45.93 5.76339 45.5927 5.71624C45.2554 5.66909 44.9119 5.73343 44.6144 5.8995L41.4437 7.65225C41.211 7.77887 40.9499 7.84442 40.6849 7.84276C40.4199 7.8411 40.1597 7.77228 39.9285 7.64275C38.4187 6.81573 36.8216 6.15936 35.1666 5.68575C34.9122 5.61304 34.6804 5.47713 34.4927 5.29067C34.305 5.10421 34.1675 4.87327 34.0931 4.61938L33.0861 1.14C32.9917 0.812533 32.7937 0.524473 32.5218 0.318959C32.2499 0.113445 31.9188 0.00153921 31.578 0L25.4077 0C25.067 0.000506293 24.7356 0.112062 24.4639 0.317769C24.1922 0.523476 23.9949 0.812127 23.902 1.14L22.9021 4.6075C22.8274 4.86096 22.6898 5.09141 22.5021 5.27743C22.3144 5.46346 22.0827 5.59901 21.8286 5.6715C20.1732 6.15363 18.5749 6.8115 17.0667 7.638C16.5917 7.89925 16.0265 7.89925 15.5515 7.64513L12.3738 5.8995C12.0761 5.73412 11.7327 5.67016 11.3955 5.7173C11.0582 5.76443 10.7455 5.9201 10.5046 6.16075L6.1465 10.526C5.90615 10.7669 5.75065 11.0795 5.70351 11.4168C5.65638 11.754 5.72017 12.0974 5.88525 12.3951L7.63562 15.5657C7.89687 16.0407 7.88975 16.606 7.6285 17.081C6.80071 18.5907 6.14354 20.1878 5.66912 21.8429C5.59664 22.097 5.46108 22.3287 5.27506 22.5163C5.08904 22.704 4.85859 22.8416 4.60512 22.9164L1.13762 23.9139C0.8106 24.0087 0.523065 24.2069 0.318009 24.4787C0.112952 24.7506 0.00138932 25.0815 0 25.422V31.5946C0 32.2905 0.458375 32.9151 1.14 33.1027L4.60512 34.1002C4.85886 34.1752 5.0895 34.3132 5.27554 34.5013C5.46158 34.6894 5.59698 34.9216 5.66912 35.1761C6.15362 36.8315 6.80912 38.4299 7.63562 39.9356C7.89687 40.4106 7.89688 40.9759 7.64513 41.4556L5.89237 44.6239C5.72757 44.9213 5.66393 45.2642 5.71106 45.6009C5.75818 45.9376 5.91351 46.2499 6.15362 46.4906L10.5117 50.8535C10.7525 51.0948 11.0652 51.2509 11.4026 51.298C11.7399 51.3452 12.0834 51.2808 12.3809 51.1147L15.5515 49.362C16.0265 49.1008 16.5917 49.1079 17.0667 49.3691C18.5764 50.197 20.1735 50.8541 21.8286 51.3285C22.344 51.4757 22.7549 51.8747 22.9021 52.3925L23.8996 55.86C24.0967 56.5321 24.7119 57 25.4077 57H31.578C31.9192 57 32.2511 56.8887 32.5233 56.6829C32.7955 56.4772 32.9931 56.1883 33.0861 55.86L34.086 52.3925C34.1607 52.139 34.2984 51.9086 34.486 51.7226C34.6737 51.5365 34.9054 51.401 35.1595 51.3285C36.8127 50.8479 38.4087 50.1885 39.919 49.362C40.1512 49.2342 40.4116 49.1663 40.6766 49.1647C40.9416 49.163 41.2029 49.2276 41.4366 49.3525L44.6072 51.1076C45.2224 51.4401 45.9847 51.3356 46.474 50.8464L50.8345 46.4835C51.0748 46.2426 51.2304 45.93 51.2775 45.5927C51.3246 45.2555 51.2608 44.9121 51.0957 44.6144L49.3596 41.4651Z"
          fill="#155DFC" />
</svg>